<?xml version="1.0" encoding="UTF-8"?>
<svg xmlns="http://www.w3.org/2000/svg" viewBox="0 0 1100 420" role="img" aria-label="SNR intuition for diffusion noise schedules">
  <style>
    text { font-family: -apple-system, BlinkMacSystemFont, "Segoe UI", sans-serif; fill: #262b36; }
    .title { font-size: 22px; font-weight: 700; }
    .label { font-size: 16px; }
    .small { font-size: 13px; fill: #5f6875; }
    .bold { font-size: 14px; font-weight: 700; }
  </style>
  <rect width="1100" height="420" fill="#fbfcfd"/>
  <text x="72" y="34" class="title">SNR compares remaining signal against accumulated noise</text>
  <rect x="72" y="78" width="460" height="260" fill="#ffffff" stroke="#d2d8df"/>
<line x1="72" y1="78" x2="72" y2="338" stroke="#edf1f4"/>
<line x1="187" y1="78" x2="187" y2="338" stroke="#edf1f4"/>
<line x1="302" y1="78" x2="302" y2="338" stroke="#edf1f4"/>
<line x1="417" y1="78" x2="417" y2="338" stroke="#edf1f4"/>
<line x1="532" y1="78" x2="532" y2="338" stroke="#edf1f4"/>
<line x1="72" y1="78" x2="532" y2="78" stroke="#edf1f4"/>
<line x1="72" y1="143" x2="532" y2="143" stroke="#edf1f4"/>
<line x1="72" y1="208" x2="532" y2="208" stroke="#edf1f4"/>
<line x1="72" y1="273" x2="532" y2="273" stroke="#edf1f4"/>
<line x1="72" y1="338" x2="532" y2="338" stroke="#edf1f4"/>
  <polyline points="72.5,78.0 74.8,78.1 77.1,78.2 79.4,78.3 81.7,78.5 84.0,78.7 86.3,78.9 88.6,79.2 90.9,79.5 93.2,79.8 95.5,80.2 97.8,80.5 100.1,81.0 102.4,81.4 104.7,81.9 107.0,82.4 109.3,82.9 111.6,83.5 113.9,84.1 116.2,84.7 118.5,85.4 120.8,86.1 123.1,86.8 125.4,87.5 127.7,88.3 130.0,89.1 132.3,90.0 134.6,90.8 136.9,91.7 139.2,92.7 141.5,93.6 143.8,94.6 146.1,95.6 148.4,96.6 150.7,97.7 153.0,98.8 155.3,99.9 157.6,101.0 159.9,102.2 162.2,103.4 164.5,104.6 166.8,105.8 169.1,107.1 171.4,108.4 173.7,109.7 176.0,111.0 178.3,112.4 180.6,113.8 182.9,115.2 185.2,116.6 187.5,118.1 189.8,119.5 192.1,121.0 194.4,122.6 196.7,124.1 199.0,125.7 201.3,127.2 203.6,128.8 205.9,130.4 208.2,132.1 210.5,133.7 212.8,135.4 215.1,137.1 217.4,138.8 219.7,140.5 222.0,142.3 224.3,144.0 226.6,145.8 228.9,147.6 231.2,149.4 233.5,151.2 235.8,153.0 238.1,154.9 240.4,156.7 242.7,158.6 245.0,160.5 247.3,162.4 249.6,164.3 251.9,166.2 254.2,168.1 256.5,170.0 258.8,172.0 261.1,173.9 263.4,175.9 265.7,177.9 268.0,179.8 270.3,181.8 272.6,183.8 274.9,185.8 277.2,187.8 279.5,189.8 281.8,191.8 284.1,193.8 286.4,195.8 288.7,197.9 291.0,199.9 293.3,201.9 295.6,203.9 297.9,206.0 300.2,208.0 302.5,210.0 304.8,212.0 307.1,214.1 309.4,216.1 311.7,218.1 314.0,220.1 316.3,222.1 318.6,224.1 320.9,226.2 323.2,228.2 325.5,230.2 327.8,232.2 330.1,234.1 332.4,236.1 334.7,238.1 337.0,240.1 339.3,242.0 341.6,244.0 343.9,245.9 346.2,247.8 348.5,249.8 350.8,251.7 353.1,253.6 355.4,255.5 357.7,257.4 360.0,259.2 362.3,261.1 364.6,262.9 366.9,264.8 369.2,266.6 371.5,268.4 373.8,270.2 376.1,271.9 378.4,273.7 380.7,275.4 383.0,277.2 385.3,278.9 387.6,280.6 389.9,282.2 392.2,283.9 394.5,285.5 396.8,287.1 399.1,288.7 401.4,290.3 403.7,291.9 406.0,293.4 408.3,294.9 410.6,296.4 412.9,297.9 415.2,299.3 417.5,300.8 419.8,302.2 422.1,303.6 424.4,304.9 426.7,306.3 429.0,307.6 431.3,308.9 433.6,310.1 435.9,311.4 438.2,312.6 440.5,313.8 442.8,314.9 445.1,316.1 447.4,317.2 449.7,318.3 452.0,319.3 454.3,320.4 456.6,321.4 458.9,322.4 461.2,323.3 463.5,324.2 465.8,325.1 468.1,326.0 470.4,326.8 472.7,327.6 475.0,328.4 477.3,329.2 479.6,329.9 481.9,330.6 484.2,331.2 486.5,331.9 488.8,332.5 491.1,333.0 493.4,333.6 495.7,334.1 498.0,334.6 500.3,335.0 502.6,335.4 504.9,335.8 507.2,336.2 509.5,336.5 511.8,336.8 514.1,337.0 516.4,337.3 518.7,337.5 521.0,337.6 523.3,337.8 525.6,337.9 527.9,337.9 530.2,338.0" fill="none" stroke="#287c8e" stroke-width="4" stroke-linecap="round" stroke-linejoin="round"/>
  <polyline points="72.5,338.0 74.8,337.9 77.1,337.8 79.4,337.7 81.7,337.5 84.0,337.3 86.3,337.1 88.6,336.8 90.9,336.5 93.2,336.2 95.5,335.8 97.8,335.5 100.1,335.0 102.4,334.6 104.7,334.1 107.0,333.6 109.3,333.1 111.6,332.5 113.9,331.9 116.2,331.3 118.5,330.6 120.8,329.9 123.1,329.2 125.4,328.5 127.7,327.7 130.0,326.9 132.3,326.0 134.6,325.2 136.9,324.3 139.2,323.3 141.5,322.4 143.8,321.4 146.1,320.4 148.4,319.4 150.7,318.3 153.0,317.2 155.3,316.1 157.6,315.0 159.9,313.8 162.2,312.6 164.5,311.4 166.8,310.2 169.1,308.9 171.4,307.6 173.7,306.3 176.0,305.0 178.3,303.6 180.6,302.2 182.9,300.8 185.2,299.4 187.5,297.9 189.8,296.5 192.1,295.0 194.4,293.4 196.7,291.9 199.0,290.3 201.3,288.8 203.6,287.2 205.9,285.6 208.2,283.9 210.5,282.3 212.8,280.6 215.1,278.9 217.4,277.2 219.7,275.5 222.0,273.7 224.3,272.0 226.6,270.2 228.9,268.4 231.2,266.6 233.5,264.8 235.8,263.0 238.1,261.1 240.4,259.3 242.7,257.4 245.0,255.5 247.3,253.6 249.6,251.7 251.9,249.8 254.2,247.9 256.5,246.0 258.8,244.0 261.1,242.1 263.4,240.1 265.7,238.1 268.0,236.2 270.3,234.2 272.6,232.2 274.9,230.2 277.2,228.2 279.5,226.2 281.8,224.2 284.1,222.2 286.4,220.2 288.7,218.1 291.0,216.1 293.3,214.1 295.6,212.1 297.9,210.0 300.2,208.0 302.5,206.0 304.8,204.0 307.1,201.9 309.4,199.9 311.7,197.9 314.0,195.9 316.3,193.9 318.6,191.9 320.9,189.8 323.2,187.8 325.5,185.8 327.8,183.8 330.1,181.9 332.4,179.9 334.7,177.9 337.0,175.9 339.3,174.0 341.6,172.0 343.9,170.1 346.2,168.2 348.5,166.2 350.8,164.3 353.1,162.4 355.4,160.5 357.7,158.6 360.0,156.8 362.3,154.9 364.6,153.1 366.9,151.2 369.2,149.4 371.5,147.6 373.8,145.8 376.1,144.1 378.4,142.3 380.7,140.6 383.0,138.8 385.3,137.1 387.6,135.4 389.9,133.8 392.2,132.1 394.5,130.5 396.8,128.9 399.1,127.3 401.4,125.7 403.7,124.1 406.0,122.6 408.3,121.1 410.6,119.6 412.9,118.1 415.2,116.7 417.5,115.2 419.8,113.8 422.1,112.4 424.4,111.1 426.7,109.7 429.0,108.4 431.3,107.1 433.6,105.9 435.9,104.6 438.2,103.4 440.5,102.2 442.8,101.1 445.1,99.9 447.4,98.8 449.7,97.7 452.0,96.7 454.3,95.6 456.6,94.6 458.9,93.6 461.2,92.7 463.5,91.8 465.8,90.9 468.1,90.0 470.4,89.2 472.7,88.4 475.0,87.6 477.3,86.8 479.6,86.1 481.9,85.4 484.2,84.8 486.5,84.1 488.8,83.5 491.1,83.0 493.4,82.4 495.7,81.9 498.0,81.4 500.3,81.0 502.6,80.6 504.9,80.2 507.2,79.8 509.5,79.5 511.8,79.2 514.1,79.0 516.4,78.7 518.7,78.5 521.0,78.4 523.3,78.2 525.6,78.1 527.9,78.1 530.2,78.0" fill="none" stroke="#d88c24" stroke-width="4" stroke-linecap="round" stroke-linejoin="round"/>
  <line x1="300.2" y1="78" x2="300.2" y2="338" stroke="#7f8791" stroke-dasharray="6 6"/>
  <circle cx="300.2" cy="208.0" r="5" fill="#262b36"/>
  <text x="316.15999999999997" y="200" class="bold">SNR = 1</text>
  <text x="316.15999999999997" y="220" class="small">signal = noise</text>
  <text x="72" y="374" class="label">normalized time t/T</text>
  <text x="332" y="108" class="small" fill="#287c8e">signal variance alpha_bar</text>
  <text x="332" y="320" class="small" fill="#d88c24">noise variance 1-alpha_bar</text>
  <text x="20" y="86" class="small">1</text>
  <text x="20" y="342" class="small">0</text>

  <rect x="600" y="78" width="460" height="260" fill="#ffffff" stroke="#d2d8df"/>
<line x1="600" y1="78" x2="600" y2="338" stroke="#edf1f4"/>
<line x1="715" y1="78" x2="715" y2="338" stroke="#edf1f4"/>
<line x1="830" y1="78" x2="830" y2="338" stroke="#edf1f4"/>
<line x1="945" y1="78" x2="945" y2="338" stroke="#edf1f4"/>
<line x1="1060" y1="78" x2="1060" y2="338" stroke="#edf1f4"/>
<line x1="600" y1="78" x2="1060" y2="78" stroke="#edf1f4"/>
<line x1="600" y1="143" x2="1060" y2="143" stroke="#edf1f4"/>
<line x1="600" y1="208" x2="1060" y2="208" stroke="#edf1f4"/>
<line x1="600" y1="273" x2="1060" y2="273" stroke="#edf1f4"/>
<line x1="600" y1="338" x2="1060" y2="338" stroke="#edf1f4"/>
  <rect x="600" y="78" width="460" height="91" fill="#e7f3f6" opacity="0.75"/>
  <rect x="600" y="169" width="460" height="52" fill="#f8f1df" opacity="0.85"/>
  <rect x="600" y="221" width="460" height="117" fill="#f7e7e3" opacity="0.7"/>
  <line x1="600" y1="195.0" x2="1060" y2="195.0" stroke="#59616c" stroke-dasharray="6 6"/>
  <polyline points="600.5,91.0 602.8,115.8 605.1,125.9 607.4,132.7 609.7,137.8 612.0,142.0 614.3,145.5 616.6,148.5 618.9,151.2 621.2,153.6 623.5,155.8 625.8,157.8 628.1,159.6 630.4,161.3 632.7,162.9 635.0,164.4 637.3,165.8 639.6,167.1 641.9,168.4 644.2,169.6 646.5,170.8 648.8,171.9 651.1,173.0 653.4,174.0 655.7,175.0 658.0,175.9 660.3,176.9 662.6,177.8 664.9,178.6 667.2,179.5 669.5,180.3 671.8,181.1 674.1,181.9 676.4,182.7 678.7,183.4 681.0,184.2 683.3,184.9 685.6,185.6 687.9,186.3 690.2,187.0 692.5,187.7 694.8,188.4 697.1,189.0 699.4,189.7 701.7,190.3 704.0,191.0 706.3,191.6 708.6,192.2 710.9,192.8 713.2,193.4 715.5,194.0 717.8,194.6 720.1,195.2 722.4,195.8 724.7,196.4 727.0,197.0 729.3,197.6 731.6,198.1 733.9,198.7 736.2,199.3 738.5,199.9 740.8,200.4 743.1,201.0 745.4,201.6 747.7,202.1 750.0,202.7 752.3,203.2 754.6,203.8 756.9,204.4 759.2,204.9 761.5,205.5 763.8,206.0 766.1,206.6 768.4,207.2 770.7,207.7 773.0,208.3 775.3,208.9 777.6,209.4 779.9,210.0 782.2,210.5 784.5,211.1 786.8,211.7 789.1,212.3 791.4,212.8 793.7,213.4 796.0,214.0 798.3,214.6 800.6,215.1 802.9,215.7 805.2,216.3 807.5,216.9 809.8,217.5 812.1,218.1 814.4,218.7 816.7,219.3 819.0,219.9 821.3,220.5 823.6,221.1 825.9,221.7 828.2,222.3 830.5,222.9 832.8,223.5 835.1,224.2 837.4,224.8 839.7,225.4 842.0,226.1 844.3,226.7 846.6,227.3 848.9,228.0 851.2,228.6 853.5,229.3 855.8,230.0 858.1,230.6 860.4,231.3 862.7,232.0 865.0,232.7 867.3,233.3 869.6,234.0 871.9,234.7 874.2,235.4 876.5,236.1 878.8,236.8 881.1,237.5 883.4,238.2 885.7,239.0 888.0,239.7 890.3,240.4 892.6,241.1 894.9,241.9 897.2,242.6 899.5,243.4 901.8,244.1 904.1,244.9 906.4,245.7 908.7,246.4 911.0,247.2 913.3,248.0 915.6,248.8 917.9,249.6 920.2,250.4 922.5,251.2 924.8,252.0 927.1,252.8 929.4,253.6 931.7,254.4 934.0,255.3 936.3,256.1 938.6,256.9 940.9,257.8 943.2,258.6 945.5,259.5 947.8,260.3 950.1,261.2 952.4,262.1 954.7,263.0 957.0,263.8 959.3,264.7 961.6,265.6 963.9,266.5 966.2,267.4 968.5,268.3 970.8,269.3 973.1,270.2 975.4,271.1 977.7,272.1 980.0,273.0 982.3,273.9 984.6,274.9 986.9,275.8 989.2,276.8 991.5,277.8 993.8,278.8 996.1,279.7 998.4,280.7 1000.7,281.7 1003.0,282.7 1005.3,283.7 1007.6,284.7 1009.9,285.7 1012.2,286.7 1014.5,287.8 1016.8,288.8 1019.1,289.8 1021.4,290.9 1023.7,291.9 1026.0,293.0 1028.3,294.0 1030.6,295.1 1032.9,296.2 1035.2,297.3 1037.5,298.3 1039.8,299.4 1042.1,300.5 1044.4,301.6 1046.7,302.7 1049.0,303.8 1051.3,305.0 1053.6,306.1 1055.9,307.2 1058.2,308.3" fill="none" stroke="#4d96d8" stroke-width="3.5" stroke-linecap="round" stroke-linejoin="round"/>
  <polyline points="600.5,81.0 602.8,104.2 605.1,113.3 607.4,119.5 609.7,124.2 612.0,128.0 614.3,131.3 616.6,134.1 618.9,136.6 621.2,138.9 623.5,141.0 625.8,142.8 628.1,144.6 630.4,146.2 632.7,147.7 635.0,149.1 637.3,150.4 639.6,151.7 641.9,152.9 644.2,154.0 646.5,155.1 648.8,156.2 651.1,157.2 653.4,158.1 655.7,159.0 658.0,159.9 660.3,160.8 662.6,161.6 664.9,162.4 667.2,163.2 669.5,163.9 671.8,164.7 674.1,165.4 676.4,166.1 678.7,166.7 681.0,167.4 683.3,168.0 685.6,168.7 687.9,169.3 690.2,169.9 692.5,170.5 694.8,171.0 697.1,171.6 699.4,172.2 701.7,172.7 704.0,173.2 706.3,173.8 708.6,174.3 710.9,174.8 713.2,175.3 715.5,175.8 717.8,176.3 720.1,176.7 722.4,177.2 724.7,177.7 727.0,178.1 729.3,178.6 731.6,179.0 733.9,179.5 736.2,179.9 738.5,180.3 740.8,180.8 743.1,181.2 745.4,181.6 747.7,182.0 750.0,182.4 752.3,182.8 754.6,183.2 756.9,183.6 759.2,184.0 761.5,184.4 763.8,184.8 766.1,185.2 768.4,185.6 770.7,186.0 773.0,186.3 775.3,186.7 777.6,187.1 779.9,187.5 782.2,187.8 784.5,188.2 786.8,188.6 789.1,188.9 791.4,189.3 793.7,189.7 796.0,190.0 798.3,190.4 800.6,190.7 802.9,191.1 805.2,191.5 807.5,191.8 809.8,192.2 812.1,192.5 814.4,192.9 816.7,193.2 819.0,193.6 821.3,193.9 823.6,194.3 825.9,194.6 828.2,195.0 830.5,195.3 832.8,195.7 835.1,196.1 837.4,196.4 839.7,196.8 842.0,197.1 844.3,197.5 846.6,197.8 848.9,198.2 851.2,198.5 853.5,198.9 855.8,199.2 858.1,199.6 860.4,200.0 862.7,200.3 865.0,200.7 867.3,201.1 869.6,201.4 871.9,201.8 874.2,202.2 876.5,202.5 878.8,202.9 881.1,203.3 883.4,203.6 885.7,204.0 888.0,204.4 890.3,204.8 892.6,205.2 894.9,205.6 897.2,206.0 899.5,206.4 901.8,206.8 904.1,207.2 906.4,207.6 908.7,208.0 911.0,208.4 913.3,208.8 915.6,209.2 917.9,209.7 920.2,210.1 922.5,210.5 924.8,211.0 927.1,211.4 929.4,211.9 931.7,212.3 934.0,212.8 936.3,213.3 938.6,213.7 940.9,214.2 943.2,214.7 945.5,215.2 947.8,215.7 950.1,216.2 952.4,216.7 954.7,217.3 957.0,217.8 959.3,218.4 961.6,218.9 963.9,219.5 966.2,220.1 968.5,220.7 970.8,221.3 973.1,221.9 975.4,222.6 977.7,223.2 980.0,223.9 982.3,224.6 984.6,225.3 986.9,226.0 989.2,226.8 991.5,227.6 993.8,228.4 996.1,229.2 998.4,230.0 1000.7,230.9 1003.0,231.8 1005.3,232.8 1007.6,233.8 1009.9,234.8 1012.2,235.9 1014.5,237.0 1016.8,238.2 1019.1,239.5 1021.4,240.8 1023.7,242.2 1026.0,243.7 1028.3,245.3 1030.6,247.0 1032.9,248.8 1035.2,250.8 1037.5,253.0 1039.8,255.5 1042.1,258.2 1044.4,261.3 1046.7,264.9 1049.0,269.2 1051.3,274.5 1053.6,281.4 1055.9,291.4 1058.2,309.7" fill="none" stroke="#e77825" stroke-width="3.5" stroke-linecap="round" stroke-linejoin="round"/>
  <text x="618" y="116" class="bold" fill="#287c8e">high SNR: data-like</text>
  <text x="778" y="185" class="bold" fill="#7a5a08">balanced</text>
  <text x="878" y="300" class="bold" fill="#a24b36">low SNR: noise-like</text>
  <text x="600" y="374" class="label">normalized time t/T</text>
  <text x="542" y="86" class="small">+45 dB</text>
  <text x="558" y="200" class="small">0 dB</text>
  <text x="542" y="342" class="small">-55 dB</text>
  <text x="838" y="62" class="title">log-SNR decays over time</text>
  <line x1="904" y1="100" x2="950" y2="100" stroke="#4d96d8" stroke-width="4"/>
  <text x="958" y="105" class="small">linear beta</text>
  <line x1="904" y1="124" x2="950" y2="124" stroke="#e77825" stroke-width="4"/>
  <text x="958" y="129" class="small">cosine</text>
</svg>
